<?xml version="1.0" encoding="utf-8"?>
<!-- Generator: Adobe Illustrator 16.0.4, SVG Export Plug-In . SVG Version: 6.00 Build 0)  -->
<!DOCTYPE svg PUBLIC "-//W3C//DTD SVG 1.1//EN" "http://www.w3.org/Graphics/SVG/1.1/DTD/svg11.dtd">
<svg version="1.1" id="Layer_1" xmlns="http://www.w3.org/2000/svg" xmlns:xlink="http://www.w3.org/1999/xlink" x="0px" y="0px"
	 width="20px" height="20px" viewBox="0 0 20 20" enable-background="new 0 0 20 20" xml:space="preserve">
<path id="Facebook" fill="#C2C2C2" d="M7.351,3.874c0,0.504,0,2.753,0,2.753H5.333v3.367h2.018V20h4.145V9.994h2.78
	c0,0,0.261-1.614,0.387-3.379c-0.361,0-3.151,0-3.151,0s0-1.959,0-2.303s0.451-0.807,0.898-0.807c0.445,0,1.386,0,2.258,0
	c0-0.459,0-2.043,0-3.506c-1.163,0-2.487,0-3.07,0C7.248,0,7.351,3.37,7.351,3.874z"/>
</svg>
